<svg xmlns="http://www.w3.org/2000/svg" width="500" height="500" viewBox="0 0 500 500" version="1.1"><path d="M 471 37.063 C 466.325 40.936, 458.273 47.569, 453.107 51.802 C 447.941 56.036, 442.316 60.711, 440.607 62.191 C 438.898 63.671, 430.975 70.361, 423 77.058 C 407.870 89.764, 397 99.710, 397 100.847 C 397 101.214, 399.641 104.332, 402.868 107.777 L 408.737 114.040 419.670 102.270 C 431.442 89.598, 457.868 60, 472.591 42.998 C 480.454 33.918, 482.756 29.971, 480.167 30.010 C 479.800 30.016, 475.675 33.189, 471 37.063 M 386 113.108 C 373.640 127.805, 374.264 126.633, 377.457 129.145 C 378.947 130.317, 380.491 132.153, 380.888 133.225 C 381.527 134.955, 382.957 134.113, 393.554 125.769 C 400.124 120.596, 405.625 115.707, 405.780 114.904 C 406.051 113.495, 396.765 103, 395.247 103 C 394.836 103, 390.675 107.549, 386 113.108 M 132.031 201.076 C 127.935 211.697, 125.354 215.539, 123.402 213.919 C 122.631 213.279, 122 212.135, 122 211.378 C 122 210.620, 121.622 210, 121.161 210 C 120.699 210, 119.782 208.817, 119.123 207.370 C 118.079 205.079, 118.187 204.558, 119.962 203.314 C 121.083 202.529, 122 200.813, 122 199.500 C 122 195.769, 118.472 194, 111.027 193.999 L 104.500 193.998 104.848 203.529 C 105.084 210.022, 104.806 213.529, 103.975 214.530 C 102.931 215.788, 103.432 216, 107.445 216 C 111.772 216, 112.083 215.835, 111.460 213.875 C 111.037 212.542, 111.292 211.430, 112.143 210.890 C 113.141 210.258, 113.170 210.027, 112.250 210.015 C 111.563 210.007, 111 209.073, 111 207.941 C 111 204.677, 112.650 206.563, 114.105 211.489 L 115.437 216 123.968 215.968 C 131.319 215.941, 132.255 215.751, 130.733 214.595 C 128.009 212.529, 129.591 210, 133.607 210 C 136.950 210, 137.422 210.613, 137.269 214.750 C 137.235 215.656, 139.566 216, 145.734 216 C 153.222 216, 154.094 215.818, 152.988 214.485 C 151.524 212.722, 150.305 198.987, 151.616 199.027 C 152.102 199.043, 155.200 202.860, 158.500 207.510 C 161.800 212.161, 165.063 215.974, 165.750 215.983 C 166.666 215.995, 167 213.382, 167 206.200 C 167 199.911, 167.430 195.970, 168.200 195.200 C 169.133 194.267, 168.773 194, 166.578 194 C 164.251 194, 163.962 194.250, 164.936 195.422 C 165.596 196.218, 165.980 198.971, 165.808 201.672 L 165.500 206.500 161.053 200.250 C 157.027 194.592, 156.270 194, 153.053 193.998 L 149.500 193.996 149.814 204.498 C 150.114 214.507, 150.033 215, 148.087 215 C 145.586 215, 144.026 212.585, 140.593 203.400 C 136.112 191.410, 135.792 191.323, 132.031 201.076 M 187.717 193.663 C 187.437 194.123, 185.571 198.747, 183.570 203.939 C 181.569 209.130, 179.442 213.967, 178.843 214.689 C 177.982 215.727, 178.458 215.997, 181.128 215.985 C 183.361 215.975, 184.048 215.683, 183.163 215.122 C 182.427 214.655, 181.977 213.200, 182.163 211.887 C 182.445 209.890, 183.072 209.500, 186 209.500 C 189.086 209.500, 189.613 209.885, 190.457 212.750 C 191.325 215.700, 191.775 216, 195.329 216 C 198.310 216, 199.014 215.702, 198.279 214.750 C 197.747 214.063, 195.631 209.225, 193.576 204 C 189.728 194.216, 188.596 192.217, 187.717 193.663 M 292.572 198.714 C 291.574 201.896, 289.528 207.088, 288.027 210.250 L 285.298 216 288.399 215.985 C 290.484 215.974, 291.062 215.692, 290.163 215.122 C 289.427 214.655, 288.977 213.200, 289.163 211.887 C 289.638 208.525, 295.338 207.895, 297.011 211.020 C 297.639 212.195, 297.908 213.796, 297.608 214.578 C 297.188 215.674, 298.069 216, 301.455 216 L 305.847 216 304.218 212.750 C 303.322 210.963, 301.379 205.900, 299.900 201.500 C 298.422 197.100, 296.577 193.371, 295.800 193.214 C 294.863 193.024, 293.777 194.874, 292.572 198.714 M 338.484 196.692 C 337.636 198.722, 336.659 201.535, 336.313 202.942 C 335.275 207.167, 331.956 214.408, 330.687 215.215 C 330.034 215.630, 331.274 215.976, 333.441 215.985 C 336.963 215.998, 337.189 215.859, 335.565 214.671 C 334.058 213.569, 333.946 212.970, 334.909 211.171 C 336.649 207.920, 341.737 208.178, 343.032 211.584 C 343.572 213.005, 343.760 214.580, 343.448 215.084 C 343.137 215.588, 344.913 216, 347.394 216 L 351.907 216 350.435 213.250 C 349.625 211.738, 347.578 206.563, 345.887 201.750 C 342.475 192.045, 340.881 190.956, 338.484 196.692 M 353.422 193.917 C 352.795 194.535, 352.910 201, 353.548 201 C 353.849 201, 355.135 199.792, 356.405 198.316 L 358.713 195.632 359.430 204.793 C 359.824 209.831, 359.862 214.414, 359.514 214.977 C 359.126 215.606, 360.349 216, 362.691 216 L 366.500 216.001 366.331 207.750 C 366.238 203.213, 366.394 198.670, 366.678 197.656 C 367.146 195.986, 367.469 196.075, 370.097 198.593 C 372.674 201.062, 372.998 201.157, 372.986 199.437 C 372.946 193.700, 372.525 193.452, 362.865 193.477 C 357.903 193.490, 353.654 193.688, 353.422 193.917 M 380.308 194.010 C 375.319 196.019, 372.667 204.522, 375.389 209.785 C 377.239 213.363, 380.615 216, 383.345 216 C 384.913 216, 385.029 215.740, 384.011 214.513 C 383.332 213.695, 383.046 212.321, 383.377 211.461 C 383.722 210.561, 383.557 210.156, 382.989 210.507 C 381.690 211.309, 381.680 200.973, 382.975 197.565 C 384.253 194.204, 386.775 194.295, 388.120 197.750 C 389.486 201.260, 388.652 212.505, 386.864 214.678 C 385.627 216.183, 385.817 216.274, 388.905 215.663 C 393.426 214.767, 394.766 213.514, 396.154 208.881 C 399.232 198.608, 390.121 190.057, 380.308 194.010 M 403 194.288 C 401.107 195.240, 400.424 196.470, 400.185 199.351 C 399.902 202.772, 400.331 203.570, 404.435 207.258 C 408.887 211.259, 410.415 215, 407.597 215 C 406.825 215, 404.794 213.313, 403.084 211.250 L 399.974 207.500 400.237 211.442 C 400.473 214.973, 400.841 215.472, 403.769 216.226 C 408.689 217.492, 414.826 215.541, 415.598 212.464 C 416.654 208.257, 415.169 205.213, 410.492 201.994 C 406.025 198.921, 404.941 196.773, 407.164 195.399 C 407.833 194.985, 409.300 195.810, 410.616 197.340 C 413.473 200.662, 415 200.730, 415 197.535 C 415 193.333, 408.430 191.555, 403 194.288 M 84.692 203.717 C 84.804 209.411, 84.443 213.966, 83.820 214.717 C 82.977 215.733, 83.847 216, 88 216 C 92.001 216, 93.035 215.704, 92.360 214.750 C 91.873 214.063, 91.526 212.600, 91.589 211.500 C 91.652 210.400, 91.771 208.488, 91.852 207.250 C 92.024 204.638, 93.235 204.378, 95.357 206.500 C 97.514 208.657, 98 208.381, 98 205 C 98 202.054, 96.718 201.029, 95.500 203 C 94.476 204.657, 92.175 204.127, 91.527 202.085 C 90.581 199.105, 91.987 195, 93.953 195 C 94.909 195, 96.505 195.900, 97.500 197 C 99.928 199.682, 100.822 199.519, 100.245 196.500 C 99.785 194.093, 99.481 194, 92.133 193.999 L 84.500 193.998 84.692 203.717 M 202.500 205 L 202.500 216 206 216.001 L 209.500 216.001 209.145 210.877 C 208.896 207.276, 209.123 205.958, 209.910 206.445 C 211.432 207.385, 214.121 213.995, 213.434 215.106 C 213.131 215.598, 214.890 216, 217.345 216 L 221.808 216 218.855 210.549 L 215.903 205.097 217.951 203.049 C 220.530 200.470, 220.543 198.543, 218 196 C 216.395 194.395, 214.667 194, 209.250 194 L 202.500 194 202.500 205 M 224 195.418 C 224 196.198, 223.703 197.661, 223.340 198.668 C 222.782 200.216, 223.063 200.151, 225.154 198.250 C 229.674 194.141, 230.220 195.044, 229.844 206.001 L 229.500 216.002 233 216.003 L 236.500 216.004 236.184 206.002 C 235.918 197.610, 236.110 196, 237.377 196 C 238.207 196, 239.587 197, 240.443 198.223 C 241.990 200.431, 242 200.424, 242 197.223 L 242 194 233 194 C 225.897 194, 224 194.299, 224 195.418 M 245.500 205 L 245.500 216 253.750 216 C 261.909 216, 262 215.972, 262 213.470 L 262 210.940 259.123 213.067 C 254.495 216.489, 252.500 215.411, 252.500 209.486 C 252.500 204.668, 252.593 204.506, 255.250 204.688 C 257.421 204.837, 258 204.443, 258 202.816 C 258 201.105, 257.747 200.965, 256.513 201.989 C 254.203 203.906, 252 202.446, 252 199 C 252 194.940, 254.363 194.153, 258.151 196.953 C 261.567 199.479, 262.163 199.340, 261.344 196.206 C 260.812 194.174, 260.164 194, 253.133 194 L 245.500 194 245.500 205 M 268.217 195.250 C 265.355 198.733, 266.477 202.737, 271.649 207.485 C 275.192 210.739, 276.166 212.258, 275.742 213.877 C 275.078 216.418, 276.644 216.638, 279.777 214.443 C 283.691 211.702, 282.730 207.797, 276.952 202.960 C 271.550 198.437, 270.775 195.500, 274.984 195.500 C 276.596 195.500, 277.863 196.347, 278.670 197.964 C 279.728 200.088, 279.989 200.192, 280.556 198.714 C 281.889 195.241, 280.335 194, 274.654 194 C 271.541 194, 268.809 194.531, 268.217 195.250 M 308.800 195.200 C 310.421 196.821, 310.421 213.179, 308.800 214.800 C 307.867 215.733, 308.367 215.997, 311.050 215.985 C 313.601 215.973, 314.112 215.724, 313.009 215.027 C 311.929 214.344, 311.436 211.803, 311.220 205.792 C 310.875 196.225, 310.511 196.086, 319.404 208.922 C 322.101 212.815, 324.913 216, 325.654 216 C 326.683 216, 327 213.866, 327 206.934 C 327 201.948, 327.466 196.998, 328.035 195.934 C 328.957 194.212, 328.725 194, 325.913 194 C 323.522 194, 322.997 194.304, 323.751 195.250 C 324.299 195.938, 325.070 198.727, 325.465 201.448 C 326.110 205.901, 326.023 206.264, 324.591 205.075 C 323.716 204.349, 323 203.334, 323 202.819 C 323 202.304, 321.575 200.109, 319.833 197.941 C 316.985 194.398, 316.207 194, 312.133 194 C 308.607 194, 307.867 194.267, 308.800 195.200 M 111 200 C 111 205.237, 111.810 206.047, 114.429 203.429 C 116.255 201.602, 116.417 199.647, 114.965 196.934 C 112.932 193.136, 111 194.630, 111 200 M 209 200 C 209 202.750, 209.418 205, 209.929 205 C 211.516 205, 214 201.949, 214 200 C 214 198.051, 211.516 195, 209.929 195 C 209.418 195, 209 197.250, 209 200 M 132.125 203.766 C 130.417 206.959, 130.755 208, 133.500 208 C 136.334 208, 136.477 207.488, 134.590 204.082 C 133.252 201.668, 133.248 201.667, 132.125 203.766 M 184.630 204.250 C 183.698 207.729, 183.829 208, 186.448 208 C 188.734 208, 188.827 207.801, 187.850 205 C 186.606 201.431, 185.458 201.163, 184.630 204.250 M 291.630 204.250 C 290.698 207.729, 290.829 208, 293.448 208 C 295.734 208, 295.827 207.801, 294.850 205 C 293.606 201.431, 292.458 201.163, 291.630 204.250 M 337.150 205 C 336.173 207.801, 336.266 208, 338.552 208 C 341.171 208, 341.302 207.729, 340.370 204.250 C 339.542 201.163, 338.394 201.431, 337.150 205 M 267.030 211.643 C 267 214.794, 268.362 216.024, 271.832 215.978 C 273.220 215.959, 273.145 215.666, 271.380 214.228 C 270.214 213.277, 268.766 211.600, 268.161 210.500 C 267.168 208.695, 267.058 208.806, 267.030 211.643 M 230.200 251.200 C 229.540 251.860, 229 253.623, 229 255.117 C 229 256.611, 228.438 258.096, 227.750 258.417 C 226.750 258.883, 226.750 259.117, 227.750 259.583 C 228.438 259.904, 229 261.928, 229 264.083 C 229 266.238, 229.450 268, 230 268 C 230.550 268, 231 266.200, 231 264 C 231 261.111, 231.417 260, 232.500 260 C 233.325 260, 234 259.550, 234 259 C 234 258.450, 233.325 258, 232.500 258 C 231.562 258, 231 257.052, 231 255.469 C 231 254.076, 231.675 252.678, 232.500 252.362 C 233.325 252.045, 234 251.384, 234 250.893 C 234 249.602, 231.604 249.796, 230.200 251.200 M 309 254.519 C 309 258.793, 308.870 259.005, 306.593 258.434 C 303.027 257.539, 300 259.559, 300 262.835 C 300 266.666, 301.701 268, 306.583 268 C 311.528 268, 311.690 267.623, 311.187 257.250 C 310.806 249.389, 309 247.133, 309 254.519 M 127.214 252.250 C 124.954 254.990, 120.744 267.144, 121.718 268.118 C 122.364 268.764, 123.278 268.225, 124.374 266.551 C 126.435 263.406, 130.575 263.086, 131.500 266 C 132.151 268.051, 136 268.851, 136 266.934 C 136 265.610, 129.295 251, 128.688 251 C 128.444 251, 127.781 251.563, 127.214 252.250 M 337.257 259.965 C 333.759 266.981, 333.485 268, 335.090 268 C 336.102 268, 337.411 267.100, 338 266 C 339.371 263.438, 341.459 263.459, 344.061 266.061 C 345.195 267.195, 346.717 267.983, 347.443 267.811 C 348.416 267.582, 347.923 265.601, 345.565 260.267 C 343.806 256.289, 342.119 252.785, 341.815 252.482 C 341.512 252.178, 339.461 255.546, 337.257 259.965 M 362 255.917 C 362 256.971, 361.438 258.096, 360.750 258.417 C 359.750 258.883, 359.750 259.117, 360.750 259.583 C 361.438 259.904, 362 261.928, 362 264.083 C 362 266.238, 362.450 268, 363 268 C 363.550 268, 364 266.362, 364 264.360 C 364 262.067, 364.647 260.229, 365.750 259.392 C 367.417 258.127, 367.417 258.062, 365.750 258.032 C 364.677 258.012, 364 257.226, 364 256 C 364 254.900, 363.550 254, 363 254 C 362.450 254, 362 254.862, 362 255.917 M 138.606 257.728 C 138.273 258.061, 138 260.541, 138 263.240 C 138 267.392, 138.269 268.088, 139.750 267.764 C 140.713 267.553, 141.381 266.827, 141.236 266.150 C 140.890 264.529, 142.807 261, 144.035 261 C 144.566 261, 145 261.863, 145 262.918 C 145 265.531, 146.024 268, 147.107 268 C 147.598 268, 148 267.070, 148 265.934 C 148 263.389, 149.733 260, 151.035 260 C 151.566 260, 152.007 261.238, 152.015 262.750 C 152.039 267.049, 153.602 268.741, 154.304 265.229 C 155.401 259.746, 154.255 257.986, 149.632 258.053 C 147.360 258.086, 144.085 257.890, 142.356 257.617 C 140.626 257.345, 138.939 257.394, 138.606 257.728 M 340.044 258.918 C 338.629 261.562, 339.076 262.285, 341.844 261.831 C 343.656 261.534, 343.728 261.255, 342.555 259.082 L 341.250 256.664 340.044 258.918 M 127.639 259.498 C 126.792 261.705, 126.777 261.667, 128.500 261.667 C 130.198 261.667, 130.342 261.088, 129.124 259.166 C 128.449 258.102, 128.149 258.169, 127.639 259.498 M 159.750 259.392 C 157.076 261.422, 157.499 265.815, 160.500 267.182 C 164.323 268.924, 168 266.902, 168 263.057 C 168 258.607, 163.448 256.585, 159.750 259.392 M 172 263.250 C 172 265.863, 172.450 268, 173 268 C 173.550 268, 174 266.705, 174 265.122 C 174 263.540, 174.675 261.685, 175.500 261 C 177.647 259.218, 177.360 258.500, 174.500 258.500 C 172.184 258.500, 172 258.850, 172 263.250 M 189.200 259.200 C 188.540 259.860, 188 261.670, 188 263.221 C 188 266.486, 191.675 268.805, 194.686 267.441 C 196.227 266.743, 196.087 266.563, 193.750 266.243 C 190.151 265.751, 190.256 264.455, 194 263.150 C 195.650 262.575, 197 261.721, 197 261.252 C 197 259.708, 194.637 258, 192.500 258 C 191.345 258, 189.860 258.540, 189.200 259.200 M 201 263.250 C 201 265.863, 201.450 268, 202 268 C 202.550 268, 203 266.411, 203 264.469 C 203 262.153, 203.551 260.726, 204.601 260.323 C 206.570 259.567, 207.964 261.597, 207.985 265.250 C 207.993 266.762, 208.450 268, 209 268 C 209.550 268, 210 266.411, 210 264.469 C 210 262.208, 210.555 260.724, 211.543 260.345 C 213.653 259.536, 214.320 260.439, 214.220 263.969 C 214.173 265.617, 214.554 267.225, 215.067 267.542 C 215.580 267.859, 216.033 267.754, 216.074 267.309 C 216.115 266.864, 216.343 265.452, 216.580 264.171 C 217.425 259.612, 215.757 258.500, 208.070 258.500 L 201 258.500 201 263.250 M 238.831 259.250 C 235.108 262.249, 236.152 266.039, 241.219 267.918 C 243.530 268.776, 244.167 268.599, 245.469 266.741 C 247.570 263.741, 247.389 260.279, 245.066 259.035 C 242.509 257.667, 240.719 257.729, 238.831 259.250 M 250 263.727 C 250 267.636, 250.352 269.048, 251.250 268.746 C 251.944 268.513, 252.360 267.162, 252.185 265.709 C 251.980 264.015, 252.597 262.469, 253.935 261.324 C 256.688 258.966, 256.545 258.520, 252.998 258.394 C 250.022 258.288, 250 258.327, 250 263.727 M 259 262.623 C 259 264.965, 259.450 267.160, 260 267.500 C 260.550 267.840, 261 267.162, 261 265.993 C 261 263.032, 262.789 260, 264.535 260 C 265.577 260, 266 261.154, 266 264 C 266 266.200, 266.450 268, 267 268 C 267.550 268, 268 266.705, 268 265.122 C 268 262.043, 270.239 259.412, 271.956 260.473 C 272.530 260.828, 273 262.666, 273 264.559 C 273 266.452, 273.475 268, 274.055 268 C 274.689 268, 274.988 266.107, 274.805 263.250 L 274.500 258.500 266.750 258.432 L 259 258.363 259 262.623 M 280.165 259.235 C 278.623 260.777, 278.676 265.487, 280.250 266.788 C 280.938 267.356, 283.188 267.772, 285.250 267.712 L 289 267.604 288.995 263.052 L 288.990 258.500 285.160 258.285 C 283.053 258.167, 280.805 258.595, 280.165 259.235 M 316.250 259.031 C 313.737 260.041, 313.106 264.706, 315.200 266.800 C 316.966 268.566, 323 268.353, 323 266.525 C 323 265.419, 322.249 265.200, 320 265.650 C 318.149 266.020, 317 265.837, 317 265.170 C 317 264.576, 318.580 263.794, 320.511 263.432 C 324.984 262.593, 325.607 261.539, 322.794 259.568 C 320.279 257.807, 319.463 257.740, 316.250 259.031 M 352 263.500 C 352 266.525, 352.450 269, 353 269 C 353.550 269, 354 267.451, 354 265.557 C 354 263.148, 354.658 261.653, 356.190 260.580 C 357.394 259.736, 358.080 258.747, 357.714 258.381 C 357.348 258.014, 356.362 258.284, 355.524 258.980 C 354.482 259.845, 354 259.890, 354 259.122 C 354 258.505, 353.550 258, 353 258 C 352.450 258, 352 260.475, 352 263.500 M 370.750 259.080 C 368.018 260.671, 368.453 265.794, 371.436 267.153 C 372.849 267.797, 374.634 267.918, 375.686 267.441 C 377.227 266.743, 377.087 266.563, 374.750 266.243 C 371.095 265.743, 371.248 264.100, 375.021 263.346 C 378.812 262.588, 379.450 261.593, 377.438 259.581 C 375.634 257.777, 373.289 257.601, 370.750 259.080 M 160.389 261.430 C 159.393 264.025, 160.788 266.169, 163.246 265.820 C 164.898 265.585, 165.500 264.833, 165.500 263 C 165.500 261.167, 164.898 260.415, 163.246 260.180 C 161.893 259.988, 160.750 260.488, 160.389 261.430 M 190.459 261.067 C 190.096 261.653, 190.036 262.369, 190.325 262.658 C 191.110 263.443, 195 262.008, 195 260.933 C 195 259.645, 191.269 259.755, 190.459 261.067 M 239.362 261.500 C 238.478 263.802, 239.719 266, 241.901 266 C 243.931 266, 245.606 262.790, 244.506 261.009 C 243.554 259.469, 240.011 259.807, 239.362 261.500 M 281.203 261.689 C 279.784 264.445, 280.847 266, 284.150 266 C 286.814 266, 287.099 265.706, 286.816 263.250 C 286.432 259.905, 282.662 258.857, 281.203 261.689 M 303.088 261.835 C 302.298 263.311, 302.401 264.088, 303.508 265.007 C 305.637 266.774, 308.202 265.440, 307.820 262.765 C 307.409 259.881, 304.446 259.298, 303.088 261.835 M 317.441 261.468 C 316.374 262.276, 316.036 262.951, 316.691 262.968 C 317.346 262.986, 318.148 262.570, 318.473 262.044 C 318.798 261.518, 319.798 261.369, 320.696 261.714 C 321.787 262.132, 322.088 261.952, 321.605 261.170 C 320.654 259.632, 319.787 259.694, 317.441 261.468 M 371.459 261.067 C 371.096 261.653, 370.977 262.310, 371.194 262.527 C 371.880 263.214, 376 261.805, 376 260.883 C 376 259.632, 372.252 259.783, 371.459 261.067 M 264.750 295.816 C 262.807 296.040, 262 296.700, 262 298.066 C 262 299.548, 262.701 300, 265 300 C 268.579 300, 268.743 301.144, 266.022 307.141 C 263.335 313.063, 263.468 314, 267 314 C 268.650 314, 270 313.536, 270 312.968 C 270 312.400, 270.754 310.263, 271.675 308.218 C 272.597 306.173, 273.483 303.825, 273.645 303 C 273.806 302.175, 274.220 300.314, 274.564 298.864 C 275.148 296.404, 274.933 296.204, 271.345 295.864 C 269.230 295.664, 266.262 295.642, 264.750 295.816 M 249.455 298.455 C 247.506 300.403, 247 301.935, 247 305.883 C 247 311.938, 248.746 314, 253.871 314 C 258.561 314, 260 312.573, 260 307.922 C 260 303.895, 258.810 302.425, 255 301.747 C 252.637 301.327, 252.678 301.260, 255.750 300.526 C 257.985 299.992, 259 299.164, 259 297.875 C 259 294.932, 252.587 295.322, 249.455 298.455 M 285 298 C 283.900 299.100, 283 300.800, 283 301.777 C 283 304.836, 285.927 308, 288.757 308 C 291.974 308, 290.619 309.680, 287.010 310.165 C 285.529 310.364, 284.375 311.265, 284.161 312.387 C 283.836 314.086, 284.309 314.225, 288.922 313.781 C 291.739 313.511, 294.351 312.982, 294.727 312.606 C 295.103 312.231, 295.591 309.075, 295.813 305.594 C 296.178 299.863, 295.996 299.110, 293.886 297.632 C 290.752 295.438, 287.425 295.575, 285 298 M 300.223 297.557 C 297.682 299.336, 297.263 303.610, 299.350 306.464 C 300.394 307.892, 301.441 308.162, 303.972 307.656 C 306.803 307.089, 307.076 307.203, 305.999 308.501 C 305.315 309.325, 303.513 310, 301.994 310 C 300.074 310, 299.074 310.609, 298.710 312 C 298.252 313.752, 298.680 314, 302.159 314 C 307.757 314, 309.761 312.593, 311.086 307.733 C 312.160 303.795, 312.302 303.664, 313.128 305.858 C 313.873 307.837, 314.571 308.152, 317.459 307.815 C 320.189 307.496, 320.680 307.681, 319.829 308.707 C 319.238 309.418, 317.733 310, 316.485 310 C 314.607 310, 313 311.651, 313 313.582 C 313 313.812, 315.007 314, 317.461 314 C 323.672 314, 326 311.378, 326 304.383 C 326 297.691, 324.283 295.785, 318.627 296.199 C 315.037 296.461, 314.272 296.956, 312.752 300 C 311.104 303.297, 311.003 303.350, 311.002 300.911 C 310.999 296.589, 304.494 294.565, 300.223 297.557 M 329.245 297.250 C 327.440 299.506, 326.932 302.691, 327.950 305.368 C 328.732 307.425, 329.624 308, 332.034 308 C 333.835 308, 334.861 308.416, 334.500 309 C 334.160 309.550, 332.836 310, 331.558 310 C 330.074 310, 329.044 310.724, 328.710 312 C 328.248 313.766, 328.673 313.996, 332.344 313.968 C 334.630 313.951, 337.327 313.310, 338.338 312.543 C 342.003 309.766, 342.296 299.075, 338.768 296.836 C 336.791 295.581, 330.356 295.861, 329.245 297.250 M 345.388 298.342 C 342.222 301.066, 342.632 304.591, 346.012 303.707 C 347.815 303.236, 348 303.691, 348 308.594 C 348 313.934, 348.037 314, 351 314 L 354 314 354 305 L 354 296 351.056 296 C 349.410 296, 346.911 297.033, 345.388 298.342 M 368.400 296.739 C 366.465 298.077, 365 301.766, 365 305.299 C 365 316.094, 378.706 317.286, 379.115 306.527 C 379.224 303.658, 379.267 303.692, 379.949 307.198 C 380.967 312.430, 382.616 314, 387.097 314 C 390.351 314, 391.185 313.542, 392.474 311.050 C 395.370 305.450, 393.712 297.468, 389.430 296.393 C 385.303 295.357, 382.553 296.391, 381.026 299.552 L 379.552 302.603 378.026 299.552 C 376.816 297.133, 375.774 296.446, 373 296.239 C 371.075 296.095, 369.005 296.320, 368.400 296.739 M 397.455 298.455 C 394.263 301.646, 393.943 309.734, 396.902 312.411 C 399.812 315.045, 406.149 314.214, 407.664 311 C 410.266 305.478, 406.250 299.799, 401.500 302.282 C 399.680 303.233, 399.629 303.171, 400.939 301.583 C 401.805 300.534, 403.279 300.011, 404.639 300.271 C 405.882 300.509, 407.081 300.208, 407.303 299.602 C 408.846 295.381, 401.396 294.513, 397.455 298.455 M 411.216 296.845 C 409.039 298.227, 410.944 301.244, 413.665 300.724 C 416.651 300.153, 417.957 301.937, 415.101 302.684 C 412.287 303.420, 412.273 307, 415.083 307 C 416.319 307, 416.987 307.509, 416.725 308.250 C 416.466 308.981, 414.948 309.391, 413.070 309.237 C 410.244 309.005, 409.896 309.246, 410.179 311.237 C 410.446 313.119, 411.210 313.551, 414.712 313.806 C 420.352 314.215, 423 312.687, 423 309.024 C 423 307.426, 422.590 305.865, 422.088 305.555 C 421.553 305.224, 421.631 303.788, 422.277 302.076 C 423.819 297.992, 421.958 295.996, 416.628 296.015 C 414.357 296.024, 411.922 296.397, 411.216 296.845 M 288 302 C 288 303.111, 288.667 304, 289.500 304 C 290.333 304, 291 303.111, 291 302 C 291 300.889, 290.333 300, 289.500 300 C 288.667 300, 288 300.889, 288 302 M 303.667 300.667 C 302.449 301.885, 302.978 304, 304.500 304 C 305.333 304, 306 303.111, 306 302 C 306 300.008, 304.934 299.399, 303.667 300.667 M 318.409 301.376 C 317.562 303.584, 318.689 304.711, 320.217 303.183 C 321.119 302.281, 321.122 301.722, 320.233 300.833 C 319.343 299.943, 318.909 300.072, 318.409 301.376 M 333 302.583 C 333 303.454, 333.534 303.989, 334.188 303.771 C 336.042 303.153, 336.349 301, 334.583 301 C 333.712 301, 333 301.712, 333 302.583 M 371 305 C 371 307.200, 371.450 309, 372 309 C 372.550 309, 373 307.200, 373 305 C 373 302.800, 372.550 301, 372 301 C 371.450 301, 371 302.800, 371 305 M 386 305 C 386 307.200, 386.450 309, 387 309 C 387.550 309, 388 307.200, 388 305 C 388 302.800, 387.550 301, 387 301 C 386.450 301, 386 302.800, 386 305 M 357 306.891 C 357 308.307, 357.878 308.884, 360.500 309.190 C 363.604 309.552, 364 309.338, 364 307.299 C 364 305.338, 363.485 305, 360.500 305 C 357.734 305, 357 305.397, 357 306.891 M 252.500 307 C 252.101 307.646, 252.224 308.624, 252.774 309.174 C 253.441 309.841, 254.016 309.783, 254.500 309 C 254.899 308.354, 254.776 307.376, 254.226 306.826 C 253.559 306.159, 252.984 306.217, 252.500 307 M 400.500 307 C 399.771 308.180, 400.717 310, 402.059 310 C 402.577 310, 403 309.100, 403 308 C 403 305.891, 401.545 305.309, 400.500 307 M 114.500 325.160 C 111.622 326.858, 109.010 330.045, 108.537 332.434 C 107.729 336.516, 107.062 348.271, 107.673 347.661 C 108.016 347.317, 109.130 347.997, 110.148 349.171 C 111.995 351.300, 112 351.293, 112.104 346.903 C 112.439 332.735, 112.405 332.909, 115.312 330.408 C 117.897 328.184, 118.942 328, 128.950 328 C 139.530 328, 139.862 328.069, 142.894 330.901 C 145.966 333.771, 146 333.911, 146 343.752 C 146 360.516, 144.610 362, 128.910 362 C 124.074 362, 119.840 362.450, 119.500 363 C 119.160 363.550, 119.385 364, 120 364 C 120.615 364, 120.816 364.489, 120.447 365.086 C 119.973 365.852, 123.344 366.073, 131.868 365.836 C 143.441 365.514, 144.075 365.385, 146.638 362.819 C 150.024 359.430, 151.212 351.949, 150.327 339.592 C 149.766 331.758, 149.356 330.311, 146.929 327.592 L 144.169 324.500 130.335 324.240 C 121.062 324.066, 115.840 324.369, 114.500 325.160 M 181.642 331.180 C 180.645 331.739, 180 333.375, 180 335.350 C 180 337.137, 179.460 339.140, 178.800 339.800 C 177.867 340.733, 177.867 341.267, 178.800 342.200 C 179.460 342.860, 180 345.110, 180 347.200 C 180 349.911, 180.430 351, 181.500 351 C 182.583 351, 183 349.889, 183 347 C 183 344.248, 183.434 343, 184.393 343 C 186.693 343, 187.076 340.253, 184.857 339.673 C 183.337 339.275, 182.931 338.466, 183.176 336.324 C 183.362 334.707, 184.105 333.500, 184.917 333.500 C 185.696 333.500, 186.502 332.995, 186.708 332.377 C 187.211 330.866, 183.690 330.034, 181.642 331.180 M 137.737 332.194 C 136.911 334.504, 138.816 336.861, 141.039 336.279 C 143.829 335.550, 143.297 331.614, 140.352 331.194 C 139.171 331.025, 137.994 331.475, 137.737 332.194 M 124.237 335.002 C 120.011 337.572, 118 340.843, 118 345.146 C 118 354.898, 130.795 359.640, 137.523 352.381 C 140.816 348.828, 141.483 344.819, 139.483 340.605 C 136.457 334.229, 129.633 331.721, 124.237 335.002 M 161.352 334.132 C 159.620 334.612, 156.807 336.594, 155.102 338.537 C 152.613 341.372, 152 342.961, 152 346.583 C 152 352.647, 155.405 356, 161.564 356 C 166.735 356, 169 355.227, 169 353.463 C 169 352.446, 168.249 352.355, 165.757 353.070 C 161.038 354.423, 160.173 354.264, 157.455 351.545 C 154.193 348.283, 154.297 344.256, 157.750 340.172 C 161.358 335.905, 166.421 334.970, 170.127 337.886 C 173.190 340.295, 174.027 342.695, 172.883 345.787 C 171.472 349.602, 169.674 348.439, 170.359 344.154 C 171.002 340.134, 170.434 338.614, 168.690 339.691 C 168.124 340.042, 165.832 340.367, 163.598 340.414 C 160.156 340.487, 159.327 340.937, 158.160 343.363 C 157.132 345.500, 157.052 346.819, 157.845 348.559 C 158.816 350.689, 159.514 350.886, 165.908 350.826 C 173.958 350.750, 175.971 349.385, 176.179 343.865 C 176.469 336.143, 169.828 331.784, 161.352 334.132 M 257 336.800 C 257 337.790, 256.460 339.140, 255.800 339.800 C 254.867 340.733, 254.867 341.267, 255.800 342.200 C 256.460 342.860, 257 345.110, 257 347.200 C 257 349.911, 257.430 351, 258.500 351 C 259.580 351, 260 349.894, 260 347.050 C 260 344.376, 260.566 342.741, 261.750 341.992 C 263.073 341.154, 263.179 340.750, 262.185 340.337 C 261.462 340.036, 260.461 338.712, 259.960 337.395 C 258.892 334.586, 257 334.205, 257 336.800 M 334.500 335.776 C 332.335 337.343, 330.809 341.209, 331.918 342.318 C 332.513 342.913, 333 345.110, 333 347.200 C 333 349.911, 333.430 351, 334.500 351 C 335.611 351, 336 349.833, 336 346.500 C 336 343.167, 336.389 342, 337.500 342 C 338.325 342, 339 341.550, 339 341 C 339 340.450, 338.355 340, 337.566 340 C 336.778 340, 335.990 338.887, 335.816 337.526 C 335.634 336.099, 335.077 335.359, 334.500 335.776 M 124.923 340.923 C 121.351 344.495, 121.328 345.048, 124.589 348.923 C 127.768 352.701, 129.574 352.783, 133.195 349.313 C 136.799 345.860, 136.735 343.796, 132.923 340.589 C 129.048 337.328, 128.495 337.351, 124.923 340.923 M 188.917 339.415 C 188.688 339.642, 188.654 342.342, 188.843 345.415 C 189.086 349.387, 189.591 351, 190.593 351 C 191.541 351, 192 349.829, 192 347.406 C 192 344.654, 192.468 343.690, 194 343.290 C 195.100 343.002, 196 342.092, 196 341.267 C 196 340.259, 195.344 339.938, 194.001 340.289 C 192.902 340.577, 191.750 340.404, 191.442 339.906 C 190.853 338.953, 189.621 338.714, 188.917 339.415 M 203.165 339.960 C 198.121 340.771, 196.735 342.355, 197.488 346.450 C 198.185 350.242, 199.432 350.966, 205.300 350.985 L 210.100 351 209.800 345.329 C 209.635 342.210, 209.050 339.569, 208.500 339.461 C 207.950 339.352, 205.549 339.577, 203.165 339.960 M 213.433 340.314 C 212.542 342.635, 213.406 351.520, 214.500 351.283 C 215.050 351.164, 215.725 349.368, 216 347.293 C 216.326 344.831, 217.079 343.409, 218.165 343.203 C 220.087 342.837, 221.434 346.059, 220.538 348.882 C 219.952 350.726, 222.130 352.537, 223.402 351.264 C 224.177 350.490, 224.148 345.153, 223.353 342.185 C 222.849 340.304, 222.145 339.920, 219.602 340.140 C 217.880 340.288, 215.912 340.064, 215.229 339.641 C 214.495 339.188, 213.759 339.463, 213.433 340.314 M 240.586 339.747 C 240.205 340.129, 238.389 340.311, 236.550 340.153 C 234.002 339.933, 232.827 340.408, 231.604 342.155 C 227.962 347.354, 230.678 351.016, 238.052 350.850 L 243 350.739 243 345.428 C 243 340.369, 242.095 338.239, 240.586 339.747 M 246.683 339.650 C 246.308 340.026, 246 342.685, 246 345.560 C 246 349.283, 246.431 350.952, 247.500 351.362 C 248.626 351.794, 249 351.197, 249 348.969 C 249 347.333, 249.898 345.102, 251 344 C 253.639 341.361, 253.745 338.531, 251.153 339.918 C 249.960 340.556, 248.963 340.563, 248.337 339.937 C 247.803 339.403, 247.059 339.274, 246.683 339.650 M 293.533 339.899 C 290.642 340.337, 289.166 341.215, 288.092 343.135 C 286.772 345.495, 286.797 346.042, 288.333 348.385 C 289.804 350.631, 290.755 351, 295.073 351 L 300.100 351 299.800 345.329 C 299.635 342.210, 299.050 339.577, 298.500 339.478 C 297.950 339.380, 295.715 339.569, 293.533 339.899 M 265.750 341.080 C 263.593 342.336, 263.383 348.243, 265.435 349.946 C 267.114 351.339, 273.623 350.967, 273.237 349.500 C 273.093 348.950, 272.104 348.486, 271.040 348.470 C 267.501 348.415, 267.939 347.335, 271.994 346.120 C 276.472 344.778, 276.824 344.056, 274.171 341.655 C 272.121 339.799, 268.387 339.544, 265.750 341.080 M 277.719 341.965 C 277.191 343.987, 279.197 347, 281.071 347 C 281.582 347, 282 347.459, 282 348.019 C 282 348.620, 280.921 348.767, 279.370 348.378 C 277.378 347.878, 276.852 348.055, 277.203 349.109 C 277.902 351.205, 284.047 350.885, 285.391 348.683 C 286.312 347.173, 285.992 346.451, 283.500 344.418 C 281.052 342.421, 280.868 342.019, 282.500 342.235 C 283.600 342.381, 284.725 342.050, 285 341.500 C 285.276 340.948, 283.877 340.364, 281.880 340.197 C 278.923 339.950, 278.162 340.273, 277.719 341.965 M 303 345.578 C 303 349.630, 303.364 351, 304.440 351 C 305.381 351, 305.987 349.703, 306.190 347.250 C 306.436 344.270, 306.911 343.500, 308.500 343.500 C 310.089 343.500, 310.564 344.270, 310.810 347.250 C 311.019 349.769, 311.611 351, 312.613 351 C 313.784 351, 314.040 349.872, 313.802 345.750 L 313.500 340.500 308.250 340.328 L 303 340.155 303 345.578 M 317.477 342.394 C 315.623 345.224, 316.389 349.694, 318.849 350.405 C 320.555 350.899, 325.555 351.292, 327.750 351.106 C 328.586 351.035, 329 349.177, 329 345.500 L 329 340 324.023 340 C 319.876 340, 318.784 340.399, 317.477 342.394 M 341.443 342.447 C 339.049 346.100, 341.289 350.382, 345.822 350.818 C 350.056 351.225, 352 349.576, 352 345.578 C 352 341.531, 350.442 340, 346.323 340 C 343.950 340, 342.604 340.675, 341.443 342.447 M 355.316 341.084 C 353.794 342.606, 354.850 345.818, 357.108 346.534 C 359.489 347.290, 359.603 349.058, 357.250 348.738 C 356.288 348.607, 355.275 348.950, 355 349.500 C 354.267 350.966, 359.873 351.350, 361.560 349.950 C 363.724 348.154, 363.298 346.093, 360.500 344.818 C 357.696 343.541, 357.112 341.754, 359.646 342.206 C 360.552 342.368, 361.489 341.938, 361.730 341.250 C 362.280 339.676, 356.863 339.537, 355.316 341.084 M 365.714 340.619 C 365.321 341.012, 365 342.375, 365 343.648 C 365 345.293, 365.736 346.146, 367.547 346.601 C 370.332 347.300, 369.941 348.500, 366.929 348.500 C 363.405 348.500, 364.476 350.498, 368.165 350.805 C 371.159 351.055, 371.952 350.725, 372.498 349.007 C 373.231 346.697, 371.550 344, 369.378 344 C 368.620 344, 368 343.555, 368 343.012 C 368 342.468, 368.788 342.131, 369.750 342.262 C 370.712 342.393, 371.725 342.050, 372 341.500 C 372.575 340.351, 366.793 339.541, 365.714 340.619 M 162.200 343.200 C 160.612 344.788, 160.683 346.492, 162.394 347.912 C 163.470 348.805, 164.154 348.703, 165.394 347.463 C 166.277 346.580, 167 345.529, 167 345.129 C 167 344.251, 164.842 342, 164 342 C 163.670 342, 162.860 342.540, 162.200 343.200 M 201.571 343.571 C 199.925 345.218, 200.399 347.556, 202.548 348.380 C 204.354 349.073, 207.073 346.354, 206.380 344.548 C 205.556 342.399, 203.218 341.925, 201.571 343.571 M 234.074 343.862 C 233.371 345.175, 233.458 346.244, 234.368 347.488 C 235.433 348.944, 236.038 349.050, 237.829 348.091 C 240.519 346.652, 240.625 344.405, 238.066 343.035 C 235.477 341.650, 235.230 341.701, 234.074 343.862 M 267.951 343.559 C 266.654 345.121, 267.408 345.287, 270.427 344.105 C 272.088 343.454, 272.133 343.265, 270.750 342.734 C 269.868 342.396, 268.608 342.767, 267.951 343.559 M 292.016 342.990 C 290.144 344.147, 289.901 346.673, 291.531 348.026 C 293.195 349.407, 297 347.650, 297 345.500 C 297 343.570, 293.737 341.927, 292.016 342.990 M 320.571 343.571 C 319.754 344.389, 319.326 345.685, 319.620 346.452 C 320.444 348.601, 322.782 349.075, 324.429 347.429 C 326.075 345.782, 325.601 343.444, 323.452 342.620 C 322.685 342.326, 321.389 342.754, 320.571 343.571 M 344.616 343.527 C 342.529 345.614, 342.575 346.702, 344.804 347.895 C 347.261 349.210, 349.247 347.767, 348.837 344.965 C 348.409 342.036, 346.692 341.451, 344.616 343.527 M 226 349.500 C 226 350.325, 226.675 351, 227.500 351 C 228.325 351, 229 350.325, 229 349.500 C 229 348.675, 228.325 348, 227.500 348 C 226.675 348, 226 348.675, 226 349.500" stroke="none" fill="#1f2c19" fill-rule="evenodd"/><path d="M 133.859 72.510 C 121.257 79.074, 115.579 94.971, 119.402 112.984 C 121.444 122.609, 124.281 126.692, 141.715 145.098 C 159.624 164.007, 163.823 170.239, 163.956 178.102 C 164.024 182.145, 159.994 187.254, 154.643 189.907 C 150.171 192.124, 149.325 192.228, 143.893 191.217 C 140.495 190.585, 131.548 187.059, 122.782 182.896 C 109.309 176.499, 106.761 175.624, 100.533 175.256 C 94.314 174.889, 92.864 175.168, 88.006 177.671 C 80.109 181.738, 76.677 187.033, 76.174 195.923 C 75.795 202.641, 75.853 202.832, 79.550 206.924 C 81.861 209.481, 83.670 210.730, 84.239 210.161 C 84.749 209.651, 85.016 205.805, 84.833 201.615 L 84.500 193.995 92.133 193.998 C 99.481 194, 99.785 194.094, 100.245 196.500 C 100.822 199.519, 99.928 199.682, 97.500 197 C 96.505 195.900, 94.909 195, 93.953 195 C 91.987 195, 90.581 199.105, 91.527 202.085 C 92.175 204.127, 94.476 204.657, 95.500 203 C 96.718 201.029, 98 202.054, 98 205 C 98 208.381, 97.514 208.657, 95.357 206.500 C 92.415 203.558, 91.838 204.411, 91.655 211.980 C 91.597 214.379, 91.804 214.456, 98.048 214.360 L 104.500 214.260 104.500 204.129 L 104.500 193.997 111.027 193.999 C 118.472 194, 122 195.769, 122 199.500 C 122 200.813, 121.083 202.529, 119.962 203.314 C 118.177 204.564, 118.075 205.072, 119.140 207.407 C 120.205 209.746, 120.873 210.047, 124.574 209.855 L 128.794 209.637 132.025 201.133 C 135.768 191.279, 136.096 191.366, 140.593 203.400 C 144.026 212.585, 145.586 215, 148.087 215 C 150.033 215, 150.114 214.507, 149.814 204.498 L 149.500 193.996 153.053 193.998 C 156.270 194, 157.027 194.592, 161.053 200.250 L 165.500 206.500 165.808 201.672 C 165.980 198.971, 165.596 196.218, 164.936 195.422 C 163.962 194.250, 164.251 194, 166.578 194 C 168.773 194, 169.133 194.267, 168.200 195.200 C 167.430 195.970, 167 199.911, 167 206.200 C 167 213.382, 166.666 215.995, 165.750 215.983 C 165.063 215.974, 161.800 212.161, 158.500 207.510 C 155.200 202.860, 152.102 199.043, 151.616 199.027 C 150.375 198.989, 151.485 212.675, 152.857 214.327 C 153.476 215.074, 153.749 215.917, 153.464 216.203 C 153.179 216.488, 154.487 217.897, 156.370 219.333 C 166.504 227.062, 166.742 246.403, 156.831 256.664 C 155.150 258.404, 154.049 260.270, 154.383 260.811 C 154.718 261.352, 154.705 263.227, 154.354 264.978 C 153.604 268.728, 152.040 267.182, 152.015 262.667 C 152.005 260.838, 151.557 259.988, 150.750 260.270 C 150.063 260.511, 149.632 261.448, 149.794 262.354 C 149.955 263.259, 149.618 264, 149.044 264 C 148.470 264, 148 264.900, 148 266 C 148 267.100, 147.550 268, 147 268 C 146.450 268, 146 267.523, 146 266.941 C 146 266.359, 145.552 266.159, 145.004 266.498 C 144.456 266.836, 143.098 267.289, 141.986 267.503 C 140.875 267.717, 139.305 268.552, 138.497 269.360 C 137.690 270.167, 134.836 271.298, 132.155 271.873 C 125.548 273.290, 117.848 276.411, 112.936 279.661 C 105.443 284.619, 103.998 291.495, 108.859 299.054 C 114.237 307.417, 120.212 311.008, 128.718 310.990 C 136.549 310.974, 142.805 307.296, 154.794 295.661 C 160.682 289.947, 166.483 284.760, 167.684 284.136 C 171.188 282.314, 178.399 282.739, 181.186 284.932 C 183.907 287.072, 185.257 290.964, 186.993 301.677 C 188.456 310.703, 192.474 317.440, 197.764 319.734 C 208.451 324.370, 225.059 318.348, 230.565 307.840 C 231.331 306.377, 232.621 299.515, 233.431 292.592 C 235.023 278.994, 237.410 271.922, 241.068 269.963 L 243.325 268.756 240.312 267.489 C 238.655 266.792, 237.066 265.610, 236.781 264.861 C 235.890 262.520, 237.806 259.087, 240.364 258.445 C 245.758 257.091, 248.845 261.921, 245.572 266.594 C 244.221 268.523, 244.301 268.609, 247.072 268.203 C 249.837 267.797, 250 267.510, 250 263.030 C 250 258.404, 250.074 258.290, 252.998 258.394 C 256.545 258.520, 256.688 258.966, 253.935 261.324 C 250.798 264.010, 251.718 268.018, 256.090 270.711 C 260.107 273.186, 264.705 281.006, 267.578 290.250 C 269.199 295.467, 269.627 296, 272.183 296 C 275.129 296, 275.908 298.018, 274.078 300.908 C 272.723 303.049, 274.793 306.584, 279.182 309.626 C 282.140 311.676, 283.355 312.045, 284.238 311.162 C 284.877 310.523, 286.408 310, 287.641 310 C 288.874 310, 290.160 309.550, 290.500 309 C 290.850 308.434, 290.018 308, 288.582 308 C 286.960 308, 285.437 307.071, 284.357 305.423 C 280.725 299.879, 286.937 293.756, 292.818 297.083 C 295.306 298.491, 295.500 299.081, 295.500 305.249 C 295.500 310.740, 295.805 311.978, 297.250 312.355 C 298.304 312.631, 299 312.253, 299 311.406 C 299 310.524, 300.072 310, 301.878 310 C 303.460 310, 305.297 309.347, 305.959 308.550 C 306.983 307.316, 306.642 307.184, 303.678 307.665 C 300.801 308.132, 299.992 307.853, 299.035 306.066 C 295.937 300.276, 300.905 294.393, 306.962 296.679 C 309.960 297.811, 310 297.783, 310 294.562 C 310 289.500, 308.090 284.931, 303.808 279.751 C 301.649 277.139, 299.272 273.826, 298.527 272.390 C 297.114 269.666, 297.433 264.743, 299.059 264.167 C 299.576 263.983, 300 262.987, 300 261.952 C 300 259.529, 303.505 257.659, 306.593 258.434 C 308.870 259.005, 309 258.793, 309 254.519 C 309 252.034, 309.450 250, 310 250 C 310.550 250, 311.007 252.363, 311.015 255.250 C 311.024 258.137, 311.376 259.956, 311.799 259.291 C 312.652 257.949, 320.696 258.076, 322.947 259.467 C 323.707 259.937, 325.559 260.418, 327.062 260.536 C 328.565 260.655, 331.155 261.430, 332.817 262.259 L 335.840 263.767 338.450 257.747 C 339.886 254.436, 341.355 252.021, 341.714 252.381 C 342.073 252.740, 343.799 256.289, 345.550 260.267 C 349.545 269.346, 352 270.414, 352 263.073 C 352 260.283, 352.450 258, 353 258 C 353.550 258, 354 258.505, 354 259.122 C 354 259.890, 354.482 259.845, 355.524 258.980 C 356.362 258.284, 357.348 258.014, 357.714 258.381 C 358.080 258.747, 357.369 259.754, 356.133 260.619 C 354.473 261.782, 353.967 262.995, 354.194 265.273 C 354.482 268.173, 354.853 268.428, 360.500 269.613 C 369.782 271.560, 383.692 271.323, 388.509 269.135 C 395.792 265.826, 401.683 257.303, 404.626 245.816 C 407.428 234.877, 404.590 225.237, 396.467 218.105 C 393.316 215.339, 392.390 215.024, 389.179 215.625 C 385.872 216.244, 385.635 216.151, 386.836 214.701 C 388.499 212.693, 387.752 211.377, 384.606 210.776 C 382.716 210.414, 382.307 210.663, 382.747 211.906 C 383.057 212.783, 383.746 214.063, 384.278 214.750 C 384.985 215.664, 384.654 216, 383.046 216 C 380.962 216, 376.684 212.380, 374.500 208.769 C 373.950 207.860, 371.925 206.978, 370 206.808 L 366.500 206.500 366.500 211.252 L 366.500 216.003 362.993 216.002 L 359.486 216 359.851 211.408 C 360.052 208.882, 359.782 206.382, 359.250 205.850 C 358.719 205.319, 355.694 204.617, 352.527 204.291 C 346.814 203.701, 346.774 203.715, 347.471 206.098 C 347.858 207.419, 348.978 210.188, 349.961 212.250 L 351.749 216 347.316 216 C 344.877 216, 343.137 215.588, 343.448 215.084 C 343.760 214.580, 343.572 213.005, 343.032 211.584 C 341.737 208.178, 336.649 207.920, 334.909 211.171 C 333.946 212.970, 334.058 213.569, 335.565 214.671 C 337.195 215.863, 336.994 216, 333.620 216 C 330.400 216, 330.059 215.799, 331.253 214.604 C 332.943 212.915, 336.422 204.089, 335.688 203.355 C 335.401 203.067, 333.328 202.585, 331.083 202.284 L 327 201.737 327 208.868 C 327 214.179, 326.656 216, 325.654 216 C 324.913 216, 322.101 212.815, 319.404 208.922 C 310.511 196.086, 310.875 196.225, 311.220 205.792 C 311.436 211.803, 311.929 214.344, 313.009 215.027 C 314.112 215.724, 313.601 215.973, 311.050 215.985 C 308.367 215.997, 307.867 215.733, 308.800 214.800 C 310.475 213.125, 310.430 199.353, 308.750 199.277 C 308.063 199.245, 305.587 198.888, 303.250 198.482 C 300.346 197.978, 299 198.098, 299 198.862 C 299 200.363, 304.064 213.176, 305.279 214.750 C 306.020 215.709, 305.175 216, 301.654 216 C 298.096 216, 297.186 215.680, 297.608 214.578 C 297.908 213.796, 297.639 212.195, 297.011 211.020 C 295.338 207.895, 289.638 208.525, 289.163 211.887 C 288.977 213.200, 289.427 214.655, 290.163 215.122 C 291.062 215.692, 290.483 215.974, 288.396 215.985 L 285.292 216 287.738 210.889 C 289.084 208.077, 290.999 203.410, 291.994 200.516 L 293.804 195.256 289.652 193.903 C 283.183 191.797, 276.276 184.756, 274.422 178.381 C 272.972 173.392, 272.996 172.798, 274.807 168.704 C 275.868 166.305, 280.615 160.283, 285.356 155.321 C 295.650 144.548, 297.079 142.772, 299.863 137.290 C 302.571 131.956, 302.652 124.032, 300.057 118.316 C 295.800 108.940, 283.023 105.375, 270.500 110.070 C 260.278 113.902, 255.301 120.029, 243.101 143.803 C 230.710 167.949, 227.435 172, 220.300 172 C 215.889 172, 215.253 171.644, 210.021 166.250 C 202.289 158.279, 196.169 147.114, 188.414 126.832 C 171.461 82.497, 161.799 69.921, 144.790 70.047 C 140.151 70.081, 137.282 70.728, 133.859 72.510 M 362.198 128.652 C 360.382 129.558, 358.219 131.609, 357.392 133.210 C 356.564 134.810, 354.296 137.880, 352.353 140.031 C 348.977 143.768, 346.932 144.641, 339.717 145.429 C 333.061 146.155, 335.191 148.407, 344.516 150.502 C 371.852 156.646, 381 153.546, 381 138.139 C 381 132.810, 380.697 131.923, 378.143 129.774 C 374.571 126.768, 367.034 126.238, 362.198 128.652 M 187.717 193.663 C 187.437 194.123, 185.571 198.747, 183.570 203.939 C 181.569 209.130, 179.442 213.967, 178.843 214.689 C 177.982 215.727, 178.458 215.997, 181.128 215.985 C 183.361 215.975, 184.048 215.683, 183.163 215.122 C 182.427 214.655, 181.977 213.200, 182.163 211.887 C 182.445 209.890, 183.072 209.500, 186 209.500 C 189.086 209.500, 189.613 209.885, 190.457 212.750 C 191.325 215.700, 191.775 216, 195.329 216 C 198.310 216, 199.014 215.702, 198.279 214.750 C 197.747 214.063, 195.631 209.225, 193.576 204 C 189.728 194.216, 188.596 192.217, 187.717 193.663 M 202.500 205 L 202.500 216 206 216.001 L 209.500 216.001 209.145 210.877 C 208.896 207.276, 209.123 205.958, 209.910 206.445 C 211.432 207.385, 214.121 213.995, 213.434 215.106 C 213.131 215.598, 214.890 216, 217.345 216 L 221.808 216 218.855 210.549 L 215.903 205.097 217.951 203.049 C 220.530 200.470, 220.543 198.543, 218 196 C 216.395 194.395, 214.667 194, 209.250 194 L 202.500 194 202.500 205 M 224 195.418 C 224 196.198, 223.703 197.661, 223.340 198.668 C 222.782 200.216, 223.063 200.151, 225.154 198.250 C 229.674 194.141, 230.220 195.044, 229.844 206.001 L 229.500 216.002 233 216.003 L 236.500 216.004 236.184 206.002 C 235.918 197.610, 236.110 196, 237.377 196 C 238.207 196, 239.587 197, 240.443 198.223 C 241.990 200.431, 242 200.424, 242 197.223 L 242 194 233 194 C 225.897 194, 224 194.299, 224 195.418 M 245.500 205 L 245.500 216 253.750 216 C 261.909 216, 262 215.972, 262 213.470 L 262 210.940 259.123 213.067 C 254.495 216.489, 252.500 215.411, 252.500 209.486 C 252.500 204.668, 252.593 204.506, 255.250 204.688 C 257.421 204.837, 258 204.443, 258 202.816 C 258 201.105, 257.747 200.965, 256.513 201.989 C 254.203 203.906, 252 202.446, 252 199 C 252 194.940, 254.363 194.153, 258.151 196.953 C 261.567 199.479, 262.163 199.340, 261.344 196.206 C 260.812 194.174, 260.164 194, 253.133 194 L 245.500 194 245.500 205 M 268.217 195.250 C 265.355 198.733, 266.477 202.737, 271.649 207.485 C 275.192 210.739, 276.166 212.258, 275.742 213.877 C 275.078 216.418, 276.644 216.638, 279.777 214.443 C 283.691 211.702, 282.730 207.797, 276.952 202.960 C 271.550 198.437, 270.775 195.500, 274.984 195.500 C 276.596 195.500, 277.863 196.347, 278.670 197.964 C 279.728 200.088, 279.989 200.192, 280.556 198.714 C 281.889 195.241, 280.335 194, 274.654 194 C 271.541 194, 268.809 194.531, 268.217 195.250 M 111 200 C 111 205.237, 111.810 206.047, 114.429 203.429 C 116.255 201.602, 116.417 199.647, 114.965 196.934 C 112.932 193.136, 111 194.630, 111 200 M 209 200 C 209 202.750, 209.418 205, 209.929 205 C 211.516 205, 214 201.949, 214 200 C 214 198.051, 211.516 195, 209.929 195 C 209.418 195, 209 197.250, 209 200 M 132.125 203.766 C 130.417 206.959, 130.755 208, 133.500 208 C 136.334 208, 136.477 207.488, 134.590 204.082 C 133.252 201.668, 133.248 201.667, 132.125 203.766 M 184.630 204.250 C 183.698 207.729, 183.829 208, 186.448 208 C 188.734 208, 188.827 207.801, 187.850 205 C 186.606 201.431, 185.458 201.163, 184.630 204.250 M 291.630 204.250 C 290.698 207.729, 290.829 208, 293.448 208 C 295.734 208, 295.827 207.801, 294.850 205 C 293.606 201.431, 292.458 201.163, 291.630 204.250 M 323 202.878 C 323 203.360, 323.675 204.315, 324.500 205 C 325.753 206.040, 326 205.896, 326 204.122 C 326 202.902, 325.362 202, 324.500 202 C 323.675 202, 323 202.395, 323 202.878 M 337.150 205 C 336.173 207.801, 336.266 208, 338.552 208 C 341.171 208, 341.302 207.729, 340.370 204.250 C 339.542 201.163, 338.394 201.431, 337.150 205 M 111 207.941 C 111 209.073, 111.450 210, 112 210 C 112.550 210, 113 209.352, 113 208.559 C 113 207.766, 112.550 206.840, 112 206.500 C 111.450 206.160, 111 206.809, 111 207.941 M 267.030 211.643 C 267 214.794, 268.362 216.024, 271.832 215.978 C 273.220 215.959, 273.145 215.666, 271.380 214.228 C 270.214 213.277, 268.766 211.600, 268.161 210.500 C 267.168 208.695, 267.058 208.806, 267.030 211.643 M 230.200 251.200 C 229.540 251.860, 229 253.623, 229 255.117 C 229 256.611, 228.438 258.096, 227.750 258.417 C 226.750 258.883, 226.750 259.117, 227.750 259.583 C 228.438 259.904, 229 261.928, 229 264.083 C 229 266.238, 229.450 268, 230 268 C 230.550 268, 231 266.200, 231 264 C 231 261.111, 231.417 260, 232.500 260 C 233.325 260, 234 259.550, 234 259 C 234 258.450, 233.325 258, 232.500 258 C 231.562 258, 231 257.052, 231 255.469 C 231 254.076, 231.675 252.678, 232.500 252.362 C 233.325 252.045, 234 251.384, 234 250.893 C 234 249.602, 231.604 249.796, 230.200 251.200 M 362 255.917 C 362 256.971, 361.438 258.096, 360.750 258.417 C 359.750 258.883, 359.750 259.117, 360.750 259.583 C 361.438 259.904, 362 261.928, 362 264.083 C 362 266.238, 362.450 268, 363 268 C 363.550 268, 364 266.362, 364 264.360 C 364 262.067, 364.647 260.229, 365.750 259.392 C 367.417 258.127, 367.417 258.062, 365.750 258.032 C 364.677 258.012, 364 257.226, 364 256 C 364 254.900, 363.550 254, 363 254 C 362.450 254, 362 254.862, 362 255.917 M 340.044 258.918 C 338.629 261.562, 339.076 262.285, 341.844 261.831 C 343.656 261.534, 343.728 261.255, 342.555 259.082 L 341.250 256.664 340.044 258.918 M 159.750 259.392 C 157.076 261.422, 157.499 265.815, 160.500 267.182 C 164.323 268.924, 168 266.902, 168 263.057 C 168 258.607, 163.448 256.585, 159.750 259.392 M 172 263.250 C 172 265.863, 172.450 268, 173 268 C 173.550 268, 174 266.705, 174 265.122 C 174 263.540, 174.675 261.685, 175.500 261 C 177.647 259.218, 177.360 258.500, 174.500 258.500 C 172.184 258.500, 172 258.850, 172 263.250 M 189.200 259.200 C 188.540 259.860, 188 261.670, 188 263.221 C 188 266.486, 191.675 268.805, 194.686 267.441 C 196.227 266.743, 196.087 266.563, 193.750 266.243 C 190.151 265.751, 190.256 264.455, 194 263.150 C 195.650 262.575, 197 261.721, 197 261.252 C 197 259.708, 194.637 258, 192.500 258 C 191.345 258, 189.860 258.540, 189.200 259.200 M 201 263.250 C 201 265.863, 201.450 268, 202 268 C 202.550 268, 203 266.411, 203 264.469 C 203 262.153, 203.551 260.726, 204.601 260.323 C 206.570 259.567, 207.964 261.597, 207.985 265.250 C 207.993 266.762, 208.450 268, 209 268 C 209.550 268, 210 266.411, 210 264.469 C 210 262.208, 210.555 260.724, 211.543 260.345 C 213.653 259.536, 214.320 260.439, 214.220 263.969 C 214.173 265.617, 214.554 267.225, 215.067 267.542 C 215.580 267.859, 216.033 267.754, 216.074 267.309 C 216.115 266.864, 216.343 265.452, 216.580 264.171 C 217.425 259.612, 215.757 258.500, 208.070 258.500 L 201 258.500 201 263.250 M 259 262.623 C 259 264.965, 259.450 267.160, 260 267.500 C 260.550 267.840, 261 267.162, 261 265.993 C 261 263.032, 262.789 260, 264.535 260 C 265.577 260, 266 261.154, 266 264 C 266 266.200, 266.450 268, 267 268 C 267.550 268, 268 266.705, 268 265.122 C 268 262.043, 270.239 259.412, 271.956 260.473 C 272.530 260.828, 273 262.666, 273 264.559 C 273 266.452, 273.475 268, 274.055 268 C 274.689 268, 274.988 266.107, 274.805 263.250 L 274.500 258.500 266.750 258.432 L 259 258.363 259 262.623 M 280.165 259.235 C 278.623 260.777, 278.676 265.487, 280.250 266.788 C 280.938 267.356, 283.188 267.772, 285.250 267.712 L 289 267.604 288.995 263.052 L 288.990 258.500 285.160 258.285 C 283.053 258.167, 280.805 258.595, 280.165 259.235 M 370.750 259.080 C 368.018 260.671, 368.453 265.794, 371.436 267.153 C 372.849 267.797, 374.634 267.918, 375.686 267.441 C 377.227 266.743, 377.087 266.563, 374.750 266.243 C 371.095 265.743, 371.248 264.100, 375.021 263.346 C 378.812 262.588, 379.450 261.593, 377.438 259.581 C 375.634 257.777, 373.289 257.601, 370.750 259.080 M 160.389 261.430 C 159.393 264.025, 160.788 266.169, 163.246 265.820 C 164.898 265.585, 165.500 264.833, 165.500 263 C 165.500 261.167, 164.898 260.415, 163.246 260.180 C 161.893 259.988, 160.750 260.488, 160.389 261.430 M 190.459 261.067 C 190.096 261.653, 190.036 262.369, 190.325 262.658 C 191.110 263.443, 195 262.008, 195 260.933 C 195 259.645, 191.269 259.755, 190.459 261.067 M 239.362 261.500 C 238.478 263.802, 239.719 266, 241.901 266 C 243.931 266, 245.606 262.790, 244.506 261.009 C 243.554 259.469, 240.011 259.807, 239.362 261.500 M 281.203 261.689 C 279.784 264.445, 280.847 266, 284.150 266 C 286.814 266, 287.099 265.706, 286.816 263.250 C 286.432 259.905, 282.662 258.857, 281.203 261.689 M 371.459 261.067 C 371.096 261.653, 370.977 262.310, 371.194 262.527 C 371.880 263.214, 376 261.805, 376 260.883 C 376 259.632, 372.252 259.783, 371.459 261.067 M 318.750 263.689 C 317.788 263.941, 317 264.564, 317 265.073 C 317 266.558, 320.638 266.141, 322 264.500 C 323.329 262.898, 322.535 262.700, 318.750 263.689 M 288 302 C 288 303.111, 288.667 304, 289.500 304 C 290.333 304, 291 303.111, 291 302 C 291 300.889, 290.333 300, 289.500 300 C 288.667 300, 288 300.889, 288 302 M 303.667 300.667 C 302.449 301.885, 302.978 304, 304.500 304 C 305.333 304, 306 303.111, 306 302 C 306 300.008, 304.934 299.399, 303.667 300.667 M 107.708 347.625 C 106.568 348.766, 108.313 358.532, 110.119 361.118 C 112.275 364.204, 117.241 366.505, 119.704 365.560 C 121.053 365.043, 121.150 364.711, 120.137 364.084 C 119.418 363.640, 118.896 362.932, 118.978 362.512 C 119.059 362.091, 118.129 361.242, 116.911 360.624 C 114.438 359.369, 113.372 357.721, 112.587 353.934 C 111.993 351.072, 108.622 346.712, 107.708 347.625 M 212 361.652 C 210.625 361.908, 207.700 363.348, 205.500 364.853 C 193.372 373.150, 193.896 391.714, 206.477 399.491 C 217.056 406.031, 231.955 401.531, 236.611 390.389 C 239.507 383.457, 237.580 372.313, 232.663 367.559 C 227.362 362.434, 219.652 360.229, 212 361.652" stroke="none" fill="#11beda" fill-rule="evenodd"/></svg>